<?xml version="1.0" encoding="UTF-8"?>
<svg width="35px" height="35px" viewBox="0 0 35 35" version="1.1" xmlns="http://www.w3.org/2000/svg" xmlns:xlink="http://www.w3.org/1999/xlink">
    <title>Shape</title>
    <g id="Page-1" stroke="none" stroke-width="1" fill="none" fill-rule="evenodd">
        <g id="Tablet" transform="translate(-467.000000, -564.000000)" fill="#FFFFFF" fill-rule="nonzero">
            <path d="M494.708333,564 L474.291667,564 C470.265208,564 467,567.265208 467,571.291667 L467,591.708333 C467,595.734792 470.265208,599 474.291667,599 L494.708333,599 C498.73625,599 502,595.734792 502,591.708333 L502,571.291667 C502,567.265208 498.73625,564 494.708333,564 Z M478,592 L474,592 L474,576 L478,576 L478,592 Z M476.5,574 C475.12,574 474,572.880385 474,571.5 C474,570.119615 475.12,569 476.5,569 C477.88,569 479,570.119615 479,571.5 C479,572.880385 477.881429,574 476.5,574 Z M496,592 L491.5,592 L491.5,583.84895 C491.5,578.950175 485.5,579.321074 485.5,583.84895 L485.5,592 L481,592 L481,576.000438 L485.5,576.000438 L485.5,578.56764 C487.594,574.806289 496,574.528478 496,582.168996 L496,592 Z" id="Shape"></path>
        </g>
    </g>
</svg>