<?xml version="1.0" encoding="UTF-8"?>
<svg width="35px" height="35px" viewBox="0 0 35 35" version="1.1" xmlns="http://www.w3.org/2000/svg" xmlns:xlink="http://www.w3.org/1999/xlink">
    <title>Fill 51</title>
    <g id="Page-1" stroke="none" stroke-width="1" fill="none" fill-rule="evenodd">
        <g id="Tablet" transform="translate(-522.000000, -564.000000)" fill="#FFFFFE">
            <path d="M539.498389,564.455 C529.836029,564.455 522,572.258715 522,581.885758 C522,589.58675 527.013813,596.119271 533.967832,598.424112 C534.843396,598.584616 535.162467,598.046392 535.162467,597.58414 C535.162467,597.170039 535.147426,596.07433 535.138832,594.620162 C530.271126,595.673069 529.244084,592.283221 529.244084,592.283221 C528.448019,590.269428 527.300654,589.733344 527.300654,589.733344 C525.711747,588.652615 527.420977,588.674016 527.420977,588.674016 C529.177476,588.797069 530.101384,590.470593 530.101384,590.470593 C531.662359,593.133893 534.197735,592.364543 535.194696,591.918341 C535.353694,590.792671 535.805979,590.024391 536.305534,589.58889 C532.419749,589.149108 528.334142,587.653209 528.334142,580.974094 C528.334142,579.071584 529.01633,577.514693 530.135762,576.297001 C529.955278,575.856149 529.354738,574.083113 530.307652,571.68411 C530.307652,571.68411 531.776236,571.215437 535.119494,573.471057 C536.515025,573.083707 538.012615,572.891101 539.500537,572.883611 C540.987385,572.891101 542.483901,573.083707 543.88158,573.471057 C547.222689,571.215437 548.689125,571.68411 548.689125,571.68411 C549.644188,574.083113 549.043648,575.856149 548.864238,576.297001 C549.985819,577.514693 550.662635,579.071584 550.662635,580.974094 C550.662635,587.670329 546.570582,589.143758 542.67298,589.574979 C543.300378,590.113204 543.860094,591.176811 543.860094,592.802184 C543.860094,595.132705 543.838608,597.012745 543.838608,597.58414 C543.838608,598.050672 544.154455,598.593176 545.041837,598.423042 C551.990485,596.112851 557,589.58461 557,581.885758 C557,572.258715 549.163971,564.455 539.498389,564.455" id="Fill-51"></path>
        </g>
    </g>
</svg>