<?xml version="1.0" encoding="UTF-8"?>
<svg width="35px" height="35px" viewBox="0 0 35 35" version="1.1" xmlns="http://www.w3.org/2000/svg" xmlns:xlink="http://www.w3.org/1999/xlink">
    <title>Shape</title>
    <g id="Page-1" stroke="none" stroke-width="1" fill="none" fill-rule="evenodd">
        <g id="Tablet" transform="translate(-467.000000, -595.000000)" fill="#000000" fill-rule="nonzero">
            <path d="M494.708333,595 L474.291667,595 C470.265208,595 467,598.265208 467,602.291667 L467,622.708333 C467,626.734792 470.265208,630 474.291667,630 L494.708333,630 C498.73625,630 502,626.734792 502,622.708333 L502,602.291667 C502,598.265208 498.73625,595 494.708333,595 Z M478,623 L474,623 L474,607 L478,607 L478,623 Z M476.5,605 C475.12,605 474,603.880385 474,602.5 C474,601.119615 475.12,600 476.5,600 C477.88,600 479,601.119615 479,602.5 C479,603.880385 477.881429,605 476.5,605 Z M496,623 L491.5,623 L491.5,614.84895 C491.5,609.950175 485.5,610.321074 485.5,614.84895 L485.5,623 L481,623 L481,607.000438 L485.5,607.000438 L485.5,609.56764 C487.594,605.806289 496,605.528478 496,613.168996 L496,623 Z" id="Shape"></path>
        </g>
    </g>
</svg>